<?xml version="1.0" standalone="no"?>
<!DOCTYPE svg PUBLIC "-//W3C//DTD SVG 20010904//EN"
 "http://www.w3.org/TR/2001/REC-SVG-20010904/DTD/svg10.dtd">
<svg version="1.0" xmlns="http://www.w3.org/2000/svg"
 width="700.000000pt" height="700.000000pt" viewBox="0 0 700.000000 700.000000"
 preserveAspectRatio="xMidYMid meet">
<metadata>
Created by potrace 1.14, written by Peter Selinger 2001-2017
</metadata>
<g transform="translate(0.000000,700.000000) scale(0.100000,-0.100000)"
fill="#000000" stroke="none">
<path d="M1314 3503 l1 -2188 573 -2 572 -2 0 1367 0 1367 61 -105 c33 -58 73
-127 88 -155 15 -27 85 -148 154 -268 70 -121 127 -223 127 -228 0 -5 5 -9 10
-9 6 0 10 -4 10 -9 0 -6 50 -96 110 -201 61 -104 119 -205 129 -223 10 -17 60
-104 111 -192 51 -88 98 -169 104 -180 58 -104 91 -153 100 -148 6 3 8 3 4 -2
-10 -10 20 -65 35 -65 6 0 39 49 72 108 69 123 90 160 170 297 32 55 165 285
295 510 432 747 394 682 459 798 18 31 34 57 35 57 1 0 1 -606 1 -1347 0 -742
1 -1353 3 -1360 3 -9 141 -12 578 -12 l574 0 0 22 c1 26 1 4229 0 4305 l0 52
-577 0 -578 0 -45 -77 c-25 -42 -54 -91 -65 -109 -67 -111 -320 -527 -412
-679 -221 -363 -283 -464 -396 -647 -63 -103 -112 -189 -109 -192 3 -3 3 -6
-1 -6 -7 0 -234 369 -550 895 -7 11 -29 46 -49 78 -21 32 -38 60 -38 62 0 3
-53 91 -118 197 -64 106 -155 257 -202 335 l-85 142 -576 1 -576 0 1 -2187z"/>
</g>
</svg>
