<?xml version="1.0" encoding="UTF-8" standalone="no"?>
<!-- Created with Inkscape (http://www.inkscape.org/) -->

<svg
   width="512"
   height="512"
   viewBox="0 0 512 512"
   version="1.1"
   id="svg5"
   inkscape:version="1.1 (c68e22c387, 2021-05-23)"
   sodipodi:docname="mancala.svg"
   xmlns:inkscape="http://www.inkscape.org/namespaces/inkscape"
   xmlns:sodipodi="http://sodipodi.sourceforge.net/DTD/sodipodi-0.dtd"
   xmlns="http://www.w3.org/2000/svg"
   xmlns:svg="http://www.w3.org/2000/svg">
  <sodipodi:namedview
     id="namedview7"
     pagecolor="#ffffff"
     bordercolor="#666666"
     borderopacity="1.0"
     inkscape:pageshadow="2"
     inkscape:pageopacity="0.0"
     inkscape:pagecheckerboard="0"
     inkscape:document-units="px"
     showgrid="false"
     units="px"
     inkscape:zoom="0.53543895"
     inkscape:cx="676.08081"
     inkscape:cy="-28.948211"
     inkscape:window-width="1920"
     inkscape:window-height="1009"
     inkscape:window-x="-8"
     inkscape:window-y="-8"
     inkscape:window-maximized="1"
     inkscape:current-layer="layer1" />
  <defs
     id="defs2" />
  <g
     inkscape:label="Camada 1"
     inkscape:groupmode="layer"
     id="layer1">
    <path
       style="fill:#803300;stroke:#803300;stroke-width:2;stroke-linecap:square;stroke-linejoin:miter;stroke-opacity:1"
       d="m 332.79407,315.95628 v -99.04586 h 41.26911 41.2691 v 99.04586 99.04585 h -41.2691 -41.26911 z"
       id="path3205" />
    <path
       style="fill:#ff9955;stroke:#ff9955;stroke-width:1.99937008;stroke-linecap:square;stroke-linejoin:miter;stroke-opacity:1;stroke-miterlimit:4;stroke-dasharray:none"
       d="m 218.39645,281.04879 -37.47201,-65.12883 -3.4e-4,-58.4016 -3.4e-4,-58.401603 23.20202,38.262283 c 12.76112,21.04425 29.48925,48.64204 37.17363,61.32842 7.68438,12.68639 14.2546,23.15563 14.60048,23.26498 0.34588,0.10936 17.71428,-28.0199 38.59645,-62.50947 l 37.96758,-62.708294 41.43418,-0.0099 41.43418,-0.0099 v 59.106814 59.10681 l -41.76433,-0.0487 -41.76434,-0.0487 -37.72949,65.44651 c -20.75123,35.99557 -37.83664,65.54404 -37.96758,65.66325 -0.13095,0.11922 -17.10049,-29.09122 -37.71009,-64.91208 z"
       id="path3318" />
    <path
       style="fill:#aa4400;stroke:#aa4400;stroke-width:2;stroke-linecap:square;stroke-linejoin:miter;stroke-opacity:1"
       d="M 97.064938,255.86846 V 96.734785 h 40.938952 40.93895 V 255.86846 415.00213 H 138.00389 97.064938 Z"
       id="path3642" />
  </g>
</svg>
